PathFileType  4	(X/Y/Z) C:\Users\wagnerel85475\Documents\Thesis\opencap-core\Data\3375ffbc-daeb-4a43-b4f7-ac9899cd4c71\MarkerData\PreAugmentation
DataRate	CameraRate	NumFrames	NumMarkers	Units	OrigDataRate	OrigDataStartFrame	OrigNumFrames
60.0	60.0	11	20	m	60.0	785	897
Frame#	Time	Neck			RShoulder			RElbow			RWrist			LShoulder			LElbow			LWrist			midHip			RHip			RKnee			RAnkle			LHip			LKnee			LAnkle			LBigToe			LSmallToe			LHeel			RBigToe			RSmallToe			RHeel			
		X1	Y1	Z1	X2	Y2	Z2	X3	Y3	Z3	X4	Y4	Z4	X5	Y5	Z5	X6	Y6	Z6	X7	Y7	Z7	X8	Y8	Z8	X9	Y9	Z9	X10	Y10	Z10	X11	Y11	Z11	X12	Y12	Z12	X13	Y13	Z13	X14	Y14	Z14	X15	Y15	Z15	X16	Y16	Z16	X17	Y17	Z17	X18	Y18	Z18	X19	Y19	Z19	X20	Y20	Z20	

785	13.0666667	0.7605600	1.3174400	-0.0739900	0.7412700	1.3221100	0.1129000	1.0671100	1.1547100	0.1349800	1.3388600	1.1811000	0.0388100	0.7966900	1.3147100	-0.2648400	1.1026400	1.1489500	-0.2649800	1.3540400	1.1440200	-0.1426600	0.5355800	0.7642100	-0.0848300	0.5321800	0.7615800	0.0417300	0.7126200	0.3295500	0.1056500	0.5893100	-0.1905600	0.0998700	0.5394000	0.7580700	-0.1984100	0.7030500	0.3192300	-0.2600700	0.6089800	-0.1874900	-0.2848600	0.8164600	-0.2356200	-0.3489800	0.7930800	-0.2315800	-0.3782600	0.5494800	-0.2380000	-0.2714600	0.7808600	-0.2244600	0.2029900	0.7430500	-0.2263900	0.2192800	0.5779900	-0.2245300	0.0667000
786	13.0833333	0.7495000	1.3325900	-0.0740700	0.7293000	1.3352100	0.1087000	1.0473700	1.1595100	0.1414200	1.3277500	1.1991000	0.0285700	0.7912100	1.3311600	-0.2671100	1.0874100	1.1660000	-0.2709100	1.3462000	1.1657500	-0.1439000	0.5408800	0.7749200	-0.0836900	0.5519300	0.7768400	0.0360500	0.6907600	0.3284100	0.0978200	0.5889800	-0.1888700	0.0996000	0.5455300	0.7688600	-0.2012900	0.6922800	0.3216700	-0.2549000	0.6087000	-0.1876700	-0.2842000	0.8158800	-0.2359400	-0.3491900	0.7934500	-0.2296700	-0.3779700	0.5597400	-0.2331300	-0.2713900	0.7813100	-0.2243200	0.2034100	0.7433300	-0.2261800	0.2192900	0.5782800	-0.2246700	0.0668900
787	13.1000000	0.7439600	1.3471800	-0.0758900	0.7304900	1.3515200	0.1134100	1.0391600	1.1805900	0.1327200	1.3051900	1.2078200	0.0467600	0.7808500	1.3439000	-0.2672400	1.0885500	1.1806300	-0.2712900	1.3499400	1.1825600	-0.1405500	0.5522600	0.7816900	-0.0829900	0.5580100	0.7849200	0.0382800	0.6789100	0.3337200	0.0940700	0.5837200	-0.1862100	0.0977100	0.5562500	0.7737100	-0.2006500	0.6818300	0.3206000	-0.2506700	0.6087300	-0.1832900	-0.2841900	0.8259100	-0.2322200	-0.3446300	0.8025800	-0.2281600	-0.3738000	0.5551500	-0.2340500	-0.2733700	0.7798700	-0.2246900	0.1987900	0.7430000	-0.2263200	0.2192400	0.5774900	-0.2177000	0.0670700
788	13.1166667	0.7385100	1.3573100	-0.0783200	0.7241900	1.3604300	0.1111500	1.0401700	1.1861100	0.1312800	1.3169900	1.2193900	0.0309500	0.7807700	1.3496500	-0.2717000	1.0841000	1.1862800	-0.2734700	1.3438100	1.1932100	-0.1429600	0.5580200	0.7832800	-0.0820200	0.5628400	0.7847800	0.0356100	0.6893900	0.3442300	0.0884300	0.5834600	-0.1843700	0.0974400	0.5619100	0.7774100	-0.2039600	0.6810500	0.3319400	-0.2498600	0.6086500	-0.1835300	-0.2842700	0.8252800	-0.2325600	-0.3448100	0.8030000	-0.2282700	-0.3738600	0.5489300	-0.2366800	-0.2759100	0.7803300	-0.2245500	0.1992000	0.7432800	-0.2261500	0.2192600	0.5780300	-0.2162000	0.0668900
789	13.1333333	0.7221900	1.3679200	-0.0844000	0.7187300	1.3685400	0.1095400	1.0401500	1.1977300	0.1176300	1.3658600	1.2432200	-0.0082900	0.7701700	1.3704500	-0.2674400	1.0869700	1.2021700	-0.2744700	1.3376400	1.2073500	-0.1464400	0.5635600	0.7937700	-0.0835700	0.5742700	0.7957100	0.0350400	0.6761800	0.3439600	0.0804100	0.5841600	-0.1840400	0.0973000	0.5777800	0.7930100	-0.2061200	0.6599900	0.3283300	-0.2409400	0.6087000	-0.1832800	-0.2842500	0.8257300	-0.2301400	-0.3442300	0.8025200	-0.2281000	-0.3737700	0.5443500	-0.2376700	-0.2778900	0.7799400	-0.2228800	0.1984200	0.7429800	-0.2261400	0.2192600	0.5782100	-0.2186000	0.0662500
790	13.1500000	0.7161400	1.3725600	-0.0868100	0.7134500	1.3711000	0.1073500	1.0454000	1.2034300	0.1137500	1.3304000	1.2480800	-0.0039100	0.7547700	1.3750800	-0.2698100	1.1042900	1.1979000	-0.2858300	1.3275800	1.2193700	-0.1508300	0.5629000	0.8037900	-0.0842100	0.5782200	0.8109400	0.0325500	0.6584900	0.3399700	0.0703600	0.5834500	-0.1843400	0.0974100	0.5838400	0.8030300	-0.2088900	0.6494100	0.3284900	-0.2359900	0.6140600	-0.1814600	-0.2858000	0.8252500	-0.2326000	-0.3448100	0.7883800	-0.2315800	-0.3759000	0.5493200	-0.2346500	-0.2756000	0.7803600	-0.2244700	0.1992200	0.7432300	-0.2260000	0.2193000	0.5785500	-0.2187800	0.0664600
791	13.1666667	0.7167100	1.3809600	-0.0821400	0.7188300	1.3831700	0.1095100	0.9778800	1.1990300	0.1244200	1.3349800	1.2545100	-0.0193600	0.7596600	1.3770700	-0.2720300	1.0861100	1.2100700	-0.2816800	1.3216000	1.2268500	-0.1503600	0.5795700	0.8151900	-0.0864300	0.5912900	0.8171600	0.0362800	0.6568600	0.3420600	0.0660500	0.5841600	-0.1840300	0.0973300	0.5941500	0.8075200	-0.2085000	0.6402500	0.3349000	-0.2327800	0.6089500	-0.1807900	-0.2832600	0.8211000	-0.2338800	-0.3467800	0.7831000	-0.2331700	-0.3780500	0.5559200	-0.2298400	-0.2727500	0.7853400	-0.2226600	0.2004200	0.7430500	-0.2262000	0.2192800	0.5783300	-0.2187500	0.0662800
792	13.1833333	0.7060400	1.3854100	-0.0820700	0.7073200	1.3881400	0.1097500	0.9889600	1.2228200	0.1315200	1.3159500	1.2611200	-0.0111700	0.7242200	1.3856200	-0.2652700	1.0507500	1.2325400	-0.2757000	1.3126000	1.2567500	-0.1466200	0.5903000	0.8135100	-0.0873500	0.5902000	0.8164700	0.0365100	0.6515700	0.3408500	0.0642000	0.5893900	-0.1824900	0.0991900	0.6003500	0.8090400	-0.2067900	0.6467700	0.3397000	-0.2307000	0.6085800	-0.1791500	-0.2836300	0.8205300	-0.2361100	-0.3465800	0.7789400	-0.2348900	-0.3796300	0.5653900	-0.2288900	-0.2688900	0.7804100	-0.2227900	0.1988200	0.7433400	-0.2262100	0.2192500	0.5791300	-0.2213800	0.0660900
793	13.2000000	0.6961200	1.3913600	-0.0814400	0.6798100	1.3926000	0.1050400	0.9951600	1.2464200	0.1441500	1.3331500	1.2750300	0.0071900	0.7136500	1.3902400	-0.2699800	1.0536200	1.2252500	-0.2831400	1.3096200	1.2473800	-0.1523300	0.6075000	0.8167500	-0.0845400	0.6071300	0.8195600	0.0381500	0.6504700	0.3385200	0.0594100	0.5842700	-0.1840600	0.0973300	0.6114800	0.8140400	-0.2060100	0.6297100	0.3321200	-0.2235600	0.6088700	-0.1766400	-0.2832600	0.8211100	-0.2357800	-0.3463800	0.7879700	-0.2354000	-0.3757800	0.5664400	-0.2282300	-0.2685900	0.7753100	-0.2264800	0.2013600	0.7384600	-0.2281200	0.2218500	0.5789900	-0.2214900	0.0658600
794	13.2166667	0.6906800	1.3919100	-0.0793000	0.6793000	1.3931000	0.1046900	0.9851700	1.2454700	0.1348400	1.3113700	1.2771700	0.0030800	0.7032400	1.3945200	-0.2654500	1.0526700	1.2220400	-0.2782600	1.3116800	1.2520500	-0.1507300	0.6181200	0.8167900	-0.0857300	0.6115300	0.8216600	0.0356800	0.6282600	0.3357000	0.0515500	0.5883500	-0.1826600	0.0948500	0.6173100	0.8149100	-0.2044300	0.6303000	0.3343000	-0.2233400	0.6085800	-0.1791200	-0.2836100	0.8205600	-0.2361300	-0.3466100	0.7836600	-0.2352500	-0.3777700	0.5655300	-0.2290600	-0.2688700	0.7703000	-0.2323100	0.2001300	0.7330300	-0.2300800	0.2202700	0.5791500	-0.2215800	0.0660500
795	13.2333333	0.6855300	1.3917300	-0.0810700	0.6739300	1.3928200	0.1031400	0.9668000	1.2504200	0.1303200	1.2411900	1.2775300	0.0239200	0.6979900	1.3948200	-0.2677900	1.0492800	1.2224400	-0.2850900	1.3017400	1.2553300	-0.1522500	0.6291500	0.8210000	-0.0854100	0.6341800	0.8243500	0.0341500	0.6219000	0.3341300	0.0495000	0.5891100	-0.1824400	0.0947500	0.6276100	0.8179100	-0.2039900	0.6233600	0.3312900	-0.2205400	0.6089400	-0.1807200	-0.2832100	0.8211300	-0.2357500	-0.3463800	0.7930200	-0.2334700	-0.3778300	0.5664300	-0.2283900	-0.2685800	0.7798600	-0.2287300	0.1987400	0.7374100	-0.2284000	0.2176500	0.5783500	-0.2189300	0.0662500
